<?xml version="1.0" encoding="UTF-8" standalone="no"?>
<!-- Created with Inkscape (http://www.inkscape.org/) -->

<svg
   width="200mm"
   height="200mm"
   viewBox="0 0 200 200"
   version="1.1"
   id="svg1"
   xml:space="preserve"
   inkscape:version="1.4.3 (fcd0343856, 2026-01-01)"
   sodipodi:docname="logo.svg"
   xmlns:inkscape="http://www.inkscape.org/namespaces/inkscape"
   xmlns:sodipodi="http://sodipodi.sourceforge.net/DTD/sodipodi-0.dtd"
   xmlns:xlink="http://www.w3.org/1999/xlink"
   xmlns="http://www.w3.org/2000/svg"
   xmlns:svg="http://www.w3.org/2000/svg"><sodipodi:namedview
     id="namedview1"
     pagecolor="#ffffff"
     bordercolor="#000000"
     borderopacity="0.25"
     inkscape:showpageshadow="2"
     inkscape:pageopacity="0.0"
     inkscape:pagecheckerboard="0"
     inkscape:deskcolor="#d1d1d1"
     inkscape:document-units="mm"
     inkscape:zoom="0.5"
     inkscape:cx="459"
     inkscape:cy="534"
     inkscape:window-width="1842"
     inkscape:window-height="1263"
     inkscape:window-x="26"
     inkscape:window-y="23"
     inkscape:window-maximized="0"
     inkscape:current-layer="layer2" /><defs
     id="defs1"><linearGradient
       id="linearGradient164"
       inkscape:collect="always"><stop
         style="stop-color:#fad641;stop-opacity:1;"
         offset="0.61792034"
         id="stop164" /><stop
         style="stop-color:#4d3e05;stop-opacity:1;"
         offset="1"
         id="stop165" /></linearGradient><linearGradient
       id="linearGradient162"
       inkscape:collect="always"><stop
         style="stop-color:#ffffff;stop-opacity:1;"
         offset="0.68061143"
         id="stop162" /><stop
         style="stop-color:#585858;stop-opacity:1;"
         offset="1"
         id="stop163" /></linearGradient><linearGradient
       inkscape:collect="always"
       xlink:href="#linearGradient162"
       id="linearGradient163"
       x1="151.1273"
       y1="102.1685"
       x2="226.77174"
       y2="177.81293"
       gradientUnits="userSpaceOnUse"
       gradientTransform="matrix(1.1396706,0,0,1.1396706,-88.620957,-89.04425)" /><linearGradient
       inkscape:collect="always"
       xlink:href="#linearGradient164"
       id="linearGradient165"
       x1="102.11006"
       y1="163.86375"
       x2="170.29056"
       y2="232.04427"
       gradientUnits="userSpaceOnUse"
       gradientTransform="matrix(1.1396706,0,0,1.1396706,-88.620957,-89.04425)" /></defs><g
     inkscape:groupmode="layer"
     id="layer2"
     inkscape:label="Color"><path
       style="opacity:0.99;fill:url(#linearGradient165);stroke:#000000;stroke-width:0.904614;stroke-linecap:round"
       d="m 64.073398,80.487127 56.897532,51.962523 c 0,0 -52.252838,88.5395 -96.087144,51.09165 C -18.950527,146.09344 64.073398,80.487127 64.073398,80.487127 Z"
       id="path160" /><path
       style="opacity:0.99;fill:url(#linearGradient163);stroke:#000000;stroke-width:0.904614;stroke-linecap:round"
       d="m 66.395751,79.616236 56.607229,51.962534 60.09074,-65.316032 c 0,0 13.0632,-33.383739 -7.25733,-49.349877 -20.32054,-15.9661427 -51.09165,-2.032055 -51.09165,-2.032055 z"
       id="path161" /></g><g
     inkscape:label="Drawing"
     inkscape:groupmode="layer"
     id="layer1"
     style="display:inline"><g
       id="g150"
       transform="matrix(1.1396706,0,0,1.1396706,138.20614,-123.03128)"><path
         style="fill:#020201;stroke-width:0.327924"
         d="m -81.135103,280.41473 c -1.39938,-0.11083 -2.93539,-0.29447 -3.35485,-0.4011 -0.15907,-0.0404 -0.49744,-0.12028 -0.75195,-0.17744 -2.66673,-0.59889 -4.33221,-1.07411 -5.87527,-1.67642 -1.09701,-0.4282 -1.38066,-0.54935 -2.56969,-1.09752 -0.38176,-0.176 -0.90234,-0.41481 -1.15684,-0.5307 -0.25451,-0.1159 -0.93126,-0.49243 -1.5039,-0.83676 -0.57264,-0.34432 -1.2231,-0.73038 -1.44548,-0.85792 -0.66889,-0.38361 -2.260187,-1.51206 -3.154297,-2.23682 -0.11207,-0.0908 -0.25089,-0.16517 -0.30849,-0.16517 -0.0576,0 -0.12207,-0.0391 -0.14328,-0.0868 -0.0212,-0.0477 -0.429,-0.41748 -0.9062,-0.82168 -3.07614,-2.60562 -5.79508,-5.77528 -7.69973,-8.97609 -0.18718,-0.31457 -0.48266,-0.80912 -0.65662,-1.099 -0.29415,-0.49017 -1.56087,-3.01994 -1.97272,-3.93975 -0.16907,-0.37759 -1.24868,-3.64333 -1.48194,-4.48277 -0.0575,-0.20679 -0.15654,-0.54886 -0.22016,-0.76016 -0.0636,-0.21131 -0.11569,-0.52058 -0.11569,-0.68728 0,-0.1667 -0.0521,-0.33526 -0.11568,-0.37459 -0.0636,-0.0393 -0.11569,-0.26624 -0.11569,-0.50427 0,-0.23802 -0.0467,-0.48223 -0.10383,-0.54267 -0.0571,-0.0605 -0.13675,-0.34416 -0.17698,-0.63048 -0.0402,-0.28632 -0.12305,-0.88499 -0.18406,-1.33037 -0.4851,-3.5415 -0.37763,-9.18995 0.23111,-12.14686 0.0655,-0.31813 0.14888,-0.78666 0.18529,-1.04116 0.0364,-0.25451 0.1079,-0.56686 0.15886,-0.69411 0.051,-0.12725 0.15686,-0.51769 0.23536,-0.86763 0.24932,-1.11156 1.27339,-4.47879 1.57443,-5.17688 0.44155,-1.02389 0.60629,-1.37331 1.43171,-3.03671 0.89225,-1.79812 1.25174,-2.46915 1.61133,-3.0078 0.10619,-0.15906 0.26058,-0.42398 0.34309,-0.58871 0.0825,-0.16472 0.53614,-0.81483 1.00807,-1.44469 0.47193,-0.62985 0.85806,-1.174 0.85806,-1.20921 0,-0.0352 0.19066,-0.2701 0.4237,-0.52195 0.23304,-0.25185 0.68261,-0.74424 0.99906,-1.09418 0.31644,-0.34995 0.78952,-0.87144 1.05127,-1.15887 0.26176,-0.28744 0.89238,-0.98987 1.40139,-1.56097 0.50901,-0.5711 1.26713,-1.40311 1.68472,-1.84892 0.41758,-0.44581 1.09433,-1.17224 1.50389,-1.61428 0.40957,-0.44204 0.848777,-0.91456 0.976027,-1.05004 2.34225,-2.49373 4.09782,-4.38763 4.86681,-5.25031 0.25007,-0.28054 0.61132,-0.67097 0.80278,-0.86764 0.19146,-0.19666 0.68157,-0.74801 1.08915,-1.2252 0.40757,-0.4772 1.29941,-1.4663 1.98187,-2.19801 0.68245,-0.7317 1.46776,-1.58449 1.74512,-1.89508 0.27736,-0.31059 0.66046,-0.72716 0.85134,-0.92572 0.19088,-0.19855 0.86417,-0.93353 1.4962,-1.63329 1.01435,-1.12305 2.81992,-3.09665 3.65176,-3.99158 0.15906,-0.17113 0.83582,-0.90112 1.50389,-1.6222 0.66808,-0.72107 1.37194,-1.47082 1.56413,-1.66609 0.38336,-0.38952 2.14026,-2.33296 3.57132,-3.9505 0.50214,-0.56756 1.41315,-1.55731 2.02448,-2.19943 2.2628,-2.37678 3.987983,-4.26292 4.593094,-5.02162 0.313965,-0.39365 0.566006,-0.67063 2.996738,-3.29327 1.399766,-1.51028 1.808491,-1.94566 2.881478,-3.06937 0.455657,-0.4772 1.19038,-1.2841 1.632717,-1.79311 0.442338,-0.50901 0.961107,-1.08367 1.152822,-1.27701 0.191714,-0.19335 1.051354,-1.12908 1.910311,-2.0794 0.858956,-0.95032 1.769971,-1.94291 2.024476,-2.20575 0.254506,-0.26284 0.983318,-1.0431 1.619582,-1.73392 0.636264,-0.69081 1.339047,-1.44269 1.561739,-1.67084 0.222693,-0.22815 0.685086,-0.72462 1.027542,-1.10327 0.342455,-0.37865 1.019362,-1.10492 1.504237,-1.61393 0.484875,-0.50901 1.037611,-1.11345 1.228303,-1.34321 0.502834,-0.60583 3.588234,-3.94357 5.215612,-5.64218 0.769102,-0.80276 1.862233,-1.98015 2.42918,-2.61641 0.566947,-0.63627 1.207426,-1.35096 1.423285,-1.5882 0.21586,-0.23725 0.45788,-0.52474 0.537822,-0.63888 0.15591,-0.22259 1.293103,-1.45955 3.056749,-3.32493 1.495397,-1.58166 1.711134,-1.81783 3.593766,-3.93411 0.905625,-1.01803 1.940581,-2.1633 2.299904,-2.54506 0.862601,-0.91646 3.161531,-3.4255 3.8707,-4.22446 0.309652,-0.34886 0.934348,-1.02501 1.388211,-1.50255 0.453864,-0.47755 1.189611,-1.28445 1.634998,-1.79311 0.445383,-0.50866 0.836567,-0.95087 0.869294,-0.98268 0.03273,-0.0318 0.995801,-1.07232 2.140162,-2.31223 4.162506,-4.51006 6.50542,-6.7568 8.364134,-8.02083 0.338218,-0.23 0.80674,-0.56983 1.04116,-0.75516 0.419841,-0.33193 0.730874,-0.52124 1.987955,-1.20994 0.3499447,-0.19172 0.8965547,-0.51176 1.2146877,-0.7112 0.318132,-0.19944 1.593551,-0.80827 2.834265,-1.35295 28.3574933,-12.44918 58.7897673,11.39877 53.4622903,41.89519 -0.247222,1.4152 -1.104587,4.45702 -1.695549,6.01559 -0.559914,1.47669 -2.274614,4.94305 -3.004334,6.07343 -0.246448,0.38176 -0.632041,0.98042 -0.856879,1.33037 -0.224838,0.34995 -0.723008,1.0267 -1.107046,1.5039 -0.384039,0.4772 -0.776338,0.96774 -0.871777,1.0901 -0.09544,0.12235 -0.82776,0.92925 -1.627377,1.79311 -0.799617,0.86385 -1.606514,1.75072 -1.793109,1.97082 -0.464968,0.54848 -1.724751,1.91455 -3.050372,3.30774 -2.140486,2.24959 -2.736357,2.88987 -3.062743,3.29098 -0.181201,0.22269 -1.010246,1.12513 -1.842321,2.00543 -0.832079,0.88029 -1.609876,1.71321 -1.72844,1.85095 -0.971666,1.12874 -2.638469,2.91267 -5.471525,5.85603 -0.768215,0.79812 -1.652813,1.73745 -1.965771,2.0874 -0.510591,0.57093 -2.77359,2.9918 -4.257621,4.55464 -0.309869,0.32632 -0.876712,0.95772 -1.259652,1.4031 -0.745762,0.86738 -3.476863,3.77988 -4.7131183,5.02617 -0.413571,0.41693 -1.246499,1.30294 -1.850949,1.96892 -1.354917,1.49283 -2.401973,2.63998 -3.172172,3.47544 -0.323166,0.35055 -1.028387,1.13142 -1.567163,1.73527 -0.538776,0.60385 -1.37857698,1.51437 -1.86622698,2.02339 -0.487653,0.50901 -1.140051,1.19032 -1.44978202,1.51402 -0.309728,0.3237 -0.92755,0.99832 -1.372934,1.49915 -1.266814,1.42453 -2.318805,2.55741 -3.539988,3.81221 -0.61922,0.63626 -1.351461,1.41333 -1.627203,1.72683 -0.275738,0.31349 -0.60546,0.6802 -0.732714,0.8149 -0.127251,0.1347 -0.515422,0.55495 -0.862602,0.9339 -0.347176,0.37895 -1.3925947,1.4959 -2.3231527,2.48211 -2.639462,2.79733 -3.28706,3.49357 -3.709574,3.98826 -0.216033,0.25293 -0.60102,0.67494 -0.855525,0.93779 -0.620649,0.64101 -2.452093,2.64047 -3.011269,3.28754 -0.536491,0.62081 -1.792946,1.95914 -3.693877,3.93456 -0.766018,0.79603 -1.809224,1.91426 -2.318234,2.48495 -0.509014,0.57068 -1.081652,1.20025 -1.27253,1.39904 -0.190878,0.19878 -0.841605,0.89732 -1.446054,1.55231 -0.604453,0.65498 -1.307234,1.40691 -1.56174,1.67094 -0.254505,0.26403 -0.719682,0.76385 -1.033725,1.11069 -1.102744,1.21794 -3.968326,4.24325 -7.99377,8.43933 -0.640908,0.66808 -1.33994,1.42292 -1.553404,1.67743 -0.213464,0.2545 -0.950057,1.0614 -1.636875,1.79311 -0.686817,0.7317 -1.394325,1.50638 -1.57224,1.7215 -0.554397,0.67036 -0.680292,0.80781 -2.374456,2.59257 -0.908009,0.95656 -1.833129,1.93119 -2.055821,2.16584 -0.222693,0.23465 -1.029592,1.09345 -1.793109,1.90845 -0.763517,0.815 -1.447306,1.53856 -1.519531,1.60792 -0.07223,0.0694 -0.722951,0.70072 -1.446055,1.40304 -0.723105,0.70231 -1.605775,1.49162 -1.96149,1.75402 -0.355714,0.26239 -0.72012,0.54882 -0.80979,0.63651 -0.08967,0.0877 -0.553472,0.42904 -1.03067,0.75854 -0.477199,0.32951 -1.008521,0.73086 -1.180717,0.8919 -0.172195,0.16103 -0.346362,0.29278 -0.387036,0.29278 -0.04068,0 -0.212136,0.098 -0.381024,0.21783 -0.168888,0.1198 -0.489272,0.32166 -0.711964,0.44858 -0.222693,0.12692 -0.735259,0.41934 -1.139036,0.64981 -0.403778,0.23048 -0.781198,0.41905 -0.838712,0.41905 -0.05751,0 -0.104571,0.0521 -0.104571,0.11568 0,0.0636 -0.104116,0.11569 -0.231369,0.11569 -0.127253,0 -0.231369,0.0521 -0.231369,0.11568 0,0.0636 -0.07879,0.11568 -0.175096,0.11568 -0.0963,0 -0.265492,0.0464 -0.375974,0.10303 -0.191358,0.0981 -0.559196,0.26471 -1.790278,0.81068 -0.301532,0.13373 -0.602697,0.24314 -0.669255,0.24314 -0.06656,0 -0.24017,0.0781 -0.385804,0.17349 -0.255265,0.16726 -1.61408,0.67377 -2.32997,0.86852 -0.190879,0.0519 -0.789546,0.22511 -1.330371,0.38486 -0.988683,0.29204 -2.603467,0.6399 -4.106798,0.88469 -0.44538,0.0725 -1.05772,0.17999 -1.36074,0.23882 -0.76966,0.14942 -5.79123,0.22414 -7.25774,0.10799 z m 6.66773,-7.81413 c 9.398859,-1.20802 13.939199,-4.27905 25.899945,-17.51838 0.373631,-0.41357 1.753702,-1.89723 3.066824,-3.29701 1.313122,-1.39978 2.665287,-2.8574 3.004812,-3.23916 0.339525,-0.38176 2.056871,-2.22982 3.816325,-4.1068 1.759454,-1.87698 3.767784,-4.03738 4.462957,-4.8009 0.695173,-0.76351 1.684206,-1.8307 2.19785,-2.37153 0.513645,-0.54082 1.889716,-2.02447 3.057937,-3.297 2.714091,-2.95643 7.213219,-7.81066 8.586375,-9.26408 0.446,-0.47207 0.446,-0.47207 -1.438731,-2.19664 -1.036602,-0.94851 -2.406899,-2.21973 -3.045105,-2.82494 -0.638206,-0.6052 -2.330092,-2.17315 -3.759744,-3.48433 -1.429651,-1.31118 -3.89732,-3.5757 -5.483713,-5.03227 -1.586389,-1.45657 -3.122099,-2.85572 -3.412688,-3.10923 -0.290589,-0.25351 -1.260216,-1.1385 -2.154726,-1.96664 -1.441448,-1.33449 -2.794081,-2.56374 -7.321541,-6.65366 -0.669115,-0.60445 -1.922894,-1.75128 -2.786177,-2.5485 -0.863282,-0.79722 -2.45459,-2.25461 -3.536239,-3.23865 -1.081649,-0.98404 -2.618804,-2.38806 -3.4159,-3.12004 -0.797097,-0.73199 -2.541039,-2.31998 -3.875427,-3.52888 -1.334389,-1.20891 -2.778883,-2.53319 -3.209987,-2.94287 -0.669773,-0.63648 -0.805995,-0.72064 -0.936184,-0.57842 -0.0838,0.0915 -0.485916,0.53394 -0.893598,0.98311 -4.107501,4.5255 -5.249788,5.77759 -6.698985,7.34294 -0.92258,0.99652 -2.66653,2.89888 -3.87543,4.22746 -1.2089,1.32858 -2.90324,3.17155 -3.7652,4.09549 -1.5473,1.65856 -6.43523,7.00402 -8.7774,9.59899 -2.30531,2.55412 -3.08916,3.41022 -5.562,6.07469 -7.266257,7.82931 -8.387737,9.26595 -10.298097,13.19204 -9.57223,19.67247 3.24394,42.20353 24.932167,43.83118 0.97807,0.0734 3.86422,-0.0515 5.22168,-0.22597 z m -7.41968,-5.3285 c -3.14125,-0.33968 -7.8712,-1.82942 -9.02054,-2.84111 -3.2823,-2.88919 0.19489,-8.2892 4.16179,-6.46318 6.24219,2.87337 13.75143,2.36076 19.870018,-1.35641 1.855766,-1.12742 3.262541,-2.35928 5.471154,-4.7909 2.399522,-2.64181 6.583609,-1.04752 6.586713,2.50977 0.0015,1.76084 -0.589382,2.61626 -3.733437,5.40455 -6.63373,5.88309 -14.659748,8.47544 -23.335698,7.53728 z m 33.639402,-21.1423 c -2.13022,-0.69818 -3.257703,-2.75036 -2.653309,-4.82941 0.272275,-0.93659 0.571871,-1.3141 3.487852,-4.39492 7.140525,-7.54418 7.818172,-8.27307 11.887265,-12.78617 2.90901,-3.22643 6.431828,-2.9776 7.450427,0.52625 0.593316,2.04093 0.367308,2.42887 -4.415527,7.57908 -0.891386,0.95985 -2.192836,2.3691 -2.892109,3.13166 -0.699275,0.76256 -2.104335,2.27577 -3.122358,3.36271 -1.018023,1.08693 -2.878935,3.07502 -4.13536,4.41798 -2.865366,3.06272 -3.827184,3.57612 -5.606881,2.99282 z m 34.91667,-29.01689 c 0.660886,-0.71355 2.81541,-3.01816 4.7878287,-5.12136 1.972419,-2.10319 4.207265,-4.4997 4.966324,-5.32557 0.759063,-0.82586 2.398888,-2.59739 3.64405902,-3.93671 2.75016598,-2.95812 7.04229498,-7.60774 7.49030098,-8.11417 0.554898,-0.62725 5.0905293,-5.50932 9.6969343,-10.43758 2.417802,-2.58674 5.279207,-5.66442 6.358674,-6.83927 1.079465,-1.17486 3.322024,-3.59373 4.983465,-5.37526 6.663284,-7.14496 8.196749,-9.30587 9.761122,-13.75509 9.197174,-26.15759 -19.4782,-50.0297 -43.8930863,-36.54078 -4.394201,2.42774 -5.5085267,3.45169 -14.5183897,13.34083 -0.604453,0.66344 -1.879872,2.04403 -2.834269,3.06797 -1.981243,2.12563 -6.310401,6.82326 -7.172432,7.78293 -0.318133,0.35416 -1.697667,1.84361 -3.065636,3.30989 -1.367969,1.46628 -3.137939,3.3703 -3.933269,4.23114 -0.79533,0.86085 -2.64701,2.8649 -4.114843,4.45345 -1.467834,1.58855 -3.933854,4.26781 -5.480045,5.95391 -1.546191,1.6861 -5.030454,5.44979 -7.742807,8.36375 -5.857239,6.29262 -5.773702,4.81487 -0.537573,9.50948 1.251458,1.12204 1.886534,1.69951 5.088993,4.62738 0.835122,0.76352 2.267628,2.06497 3.183345,2.89211 0.915718,0.82714 2.427025,2.20668 3.358461,3.06564 0.931437,0.85895 2.832908,2.60289 4.225491,3.87542 1.392584,1.27253 3.522779,3.22604 4.733769,4.34113 1.210988,1.1151 4.075882,3.74349 6.366433,5.84087 3.469081,3.17652 10.148161,9.32911 12.515912,11.52932 0.793294,0.73716 0.749579,0.75233 2.131238,-0.73943 z m 2.178962,-31.093 c -12.109246,-1.15494 -20.656831,-11.86597 -18.901741,-23.68589 0.655268,-4.413 1.841363,-6.08227 4.331476,-6.096 3.010177,-0.0166 4.625726,2.46385 3.66817,5.63195 -3.060815,10.1268 7.396663,19.44528 17.4804657,15.57655 4.32563902,-1.65956 7.739711,2.33209 5.07608002,5.93484 -1.169706,1.58211 -7.56062502,3.02901 -11.65445072,2.63855 z M 5.8970547,166.42388 c -2.143611,-0.7002 -3.290858,-3.31398 -2.320477,-5.28676 0.423393,-0.86075 3.682504,-4.6117 6.341642,-7.29865 4.0301013,-4.07227 9.2035383,1.37501 5.4144693,5.70107 -1.258675,1.43705 -5.22872,5.78128 -5.6123983,6.14136 -0.808238,0.75855 -2.668713,1.1201 -3.823236,0.74298 z M -10.295015,151.77209 c -2.343121,-0.92294 -3.124974,-4.19177 -1.474741,-6.16569 0.438641,-0.52468 5.2074957,-5.69684 5.8361427,-6.3297 2.738499,-2.75689 7.29744,-0.37002 6.59111402,3.45083 -0.186327,1.00795 -0.479137,1.44212 -2.24001502,3.32142 -0.901535,0.96218 -2.354027,2.53599 -3.227755,3.49737 -2.207065,2.42848 -3.568009,2.98076 -5.4847457,2.22577 z"
         id="path150" /></g></g></svg>
